<svg version="1.1" viewBox="0.0 0.0 960.0 720.0" fill="none" stroke="none" stroke-linecap="square" stroke-miterlimit="10" xmlns:xlink="http://www.w3.org/1999/xlink" xmlns="http://www.w3.org/2000/svg"><clipPath id="p.0"><path d="m0 0l960.0 0l0 720.0l-960.0 0l0 -720.0z" clip-rule="nonzero"/></clipPath><g clip-path="url(#p.0)"><path fill="#000000" fill-opacity="0.0" d="m0 0l960.0 0l0 720.0l-960.0 0z" fill-rule="evenodd"/><path fill="#000000" fill-opacity="0.0" d="m122.90026 337.979l-3.0708618 10.241455l9.217842 26.629944l37.89502 31.75064l13.312332 -1.0262451" fill-rule="evenodd"/><path stroke="#999999" stroke-width="3.0" stroke-linejoin="round" stroke-linecap="butt" d="m122.90026 337.979l-3.0708618 10.241455l9.217842 26.629944l37.89502 31.75064l13.312332 -1.0262451" fill-rule="evenodd"/><path fill="#000000" fill-opacity="0.0" d="m129.04724 373.82678l1.0236206 32.77426l15.362213 0" fill-rule="evenodd"/><path stroke="#999999" stroke-width="3.0" stroke-linejoin="round" stroke-linecap="butt" d="m129.04724 373.82678l1.0236206 32.77426l15.362213 0" fill-rule="evenodd"/><path fill="#000000" fill-opacity="0.0" d="m121.87664 344.12598l-17.409447 11.265106l13.312332 16.385834" fill-rule="evenodd"/><path stroke="#999999" stroke-width="3.0" stroke-linejoin="round" stroke-linecap="butt" d="m121.87664 344.12598l-17.409447 11.265106l13.312332 16.385834" fill-rule="evenodd"/><path fill="#000000" fill-opacity="0.0" d="m120.67798 345.39612l41.279053 -13.759674" fill-rule="evenodd"/><path stroke="#999999" stroke-width="3.0" stroke-linejoin="round" stroke-linecap="butt" d="m120.67798 345.39612l41.279053 -13.759674" fill-rule="evenodd"/><path fill="#000000" fill-opacity="0.0" d="m111.63627 366.65616c2.2245178 11.128296 -9.172295 23.647552 -4.0971146 33.797913" fill-rule="evenodd"/><path stroke="#000000" stroke-width="3.0" stroke-linejoin="round" stroke-linecap="butt" d="m111.63627 366.65616c2.2245178 11.128296 -9.172295 23.647552 -4.0971146 33.797913" fill-rule="evenodd"/><path fill="#000000" fill-opacity="0.0" d="m114.874016 369.3071l245.41733 -185.16536" fill-rule="evenodd"/><path stroke="#000000" stroke-width="3.0" stroke-linejoin="round" stroke-linecap="butt" d="m114.874016 369.3071l245.41733 -185.16536" fill-rule="evenodd"/><path fill="#000000" fill-opacity="0.0" d="m381.9777 184.66536l2.015747 226.3307" fill-rule="evenodd"/><path stroke="#000000" stroke-width="3.0" stroke-linejoin="round" stroke-linecap="butt" d="m381.9777 184.66536l2.015747 226.3307" fill-rule="evenodd"/><path fill="#cfe2f3" d="m333.49344 420.9188l0 0c0 -4.0965576 3.3209229 -7.4174805 7.4174805 -7.4174805l83.14929 0c1.9672546 0 3.8539124 0.78149414 5.2449646 2.1725159c1.3910217 1.3910522 2.1725159 3.27771 2.1725159 5.2449646l0 29.668976c0 4.0965576 -3.3209229 7.4174805 -7.4174805 7.4174805l-83.14929 0c-4.0965576 0 -7.4174805 -3.3209229 -7.4174805 -7.4174805z" fill-rule="evenodd"/><path stroke="#000000" stroke-width="1.0" stroke-linejoin="round" stroke-linecap="butt" d="m333.49344 420.9188l0 0c0 -4.0965576 3.3209229 -7.4174805 7.4174805 -7.4174805l83.14929 0c1.9672546 0 3.8539124 0.78149414 5.2449646 2.1725159c1.3910217 1.3910522 2.1725159 3.27771 2.1725159 5.2449646l0 29.668976c0 4.0965576 -3.3209229 7.4174805 -7.4174805 7.4174805l-83.14929 0c-4.0965576 0 -7.4174805 -3.3209229 -7.4174805 -7.4174805z" fill-rule="evenodd"/><path fill="#000000" d="m357.54526 431.67328l0 -13.359375l1.765625 0l0 5.484375l6.9375 0l0 -5.484375l1.765625 0l0 13.359375l-1.765625 0l0 -6.296875l-6.9375 0l0 6.296875l-1.765625 0zm19.832306 -3.109375l1.6875 0.203125q-0.40625 1.484375 -1.484375 2.3125q-1.078125 0.8125 -2.765625 0.8125q-2.125 0 -3.375 -1.296875q-1.234375 -1.3125 -1.234375 -3.671875q0 -2.453125 1.25 -3.796875q1.265625 -1.34375 3.265625 -1.34375q1.9375 0 3.15625 1.328125q1.234375 1.3125 1.234375 3.703125q0 0.15625 0 0.4375l-7.21875 0q0.09375 1.59375 0.90625 2.453125q0.8125 0.84375 2.015625 0.84375q0.90625 0 1.546875 -0.46875q0.640625 -0.484375 1.015625 -1.515625zm-5.390625 -2.65625l5.40625 0q-0.109375 -1.21875 -0.625 -1.828125q-0.78125 -0.953125 -2.03125 -0.953125q-1.125 0 -1.90625 0.765625q-0.765625 0.75 -0.84375 2.015625zm15.453857 4.578125q-0.921875 0.765625 -1.765625 1.09375q-0.828125 0.3125 -1.796875 0.3125q-1.59375 0 -2.453125 -0.78125q-0.859375 -0.78125 -0.859375 -1.984375q0 -0.71875 0.328125 -1.296875q0.328125 -0.59375 0.84375 -0.9375q0.53125 -0.359375 1.1875 -0.546875q0.46875 -0.125 1.453125 -0.25q1.984375 -0.234375 2.921875 -0.5625q0.015625 -0.34375 0.015625 -0.421875q0 -1.0 -0.46875 -1.421875q-0.625 -0.546875 -1.875 -0.546875q-1.15625 0 -1.703125 0.40625q-0.546875 0.40625 -0.8125 1.421875l-1.609375 -0.21875q0.21875 -1.015625 0.71875 -1.640625q0.5 -0.640625 1.453125 -0.984375q0.953125 -0.34375 2.1875 -0.34375q1.25 0 2.015625 0.296875q0.78125 0.28125 1.140625 0.734375q0.375 0.4375 0.515625 1.109375q0.078125 0.421875 0.078125 1.515625l0 2.1875q0 2.28125 0.109375 2.890625q0.109375 0.59375 0.40625 1.15625l-1.703125 0q-0.265625 -0.515625 -0.328125 -1.1875zm-0.140625 -3.671875q-0.890625 0.375 -2.671875 0.625q-1.015625 0.140625 -1.4375 0.328125q-0.421875 0.1875 -0.65625 0.53125q-0.21875 0.34375 -0.21875 0.78125q0 0.65625 0.5 1.09375q0.5 0.4375 1.453125 0.4375q0.9375 0 1.671875 -0.40625q0.75 -0.421875 1.09375 -1.140625q0.265625 -0.5625 0.265625 -1.640625l0 -0.609375zm6.891327 4.859375l-3.6875 -9.671875l1.734375 0l2.078125 5.796875q0.328125 0.9375 0.625 1.9375q0.203125 -0.765625 0.609375 -1.828125l2.140625 -5.90625l1.6875 0l-3.65625 9.671875l-1.53125 0zm6.5625 3.71875l-0.1875 -1.53125q0.546875 0.140625 0.9375 0.140625q0.546875 0 0.875 -0.1875q0.328125 -0.171875 0.546875 -0.5q0.15625 -0.25 0.5 -1.21875q0.046875 -0.140625 0.140625 -0.40625l-3.671875 -9.6875l1.765625 0l2.015625 5.59375q0.390625 1.078125 0.703125 2.25q0.28125 -1.125 0.671875 -2.203125l2.078125 -5.640625l1.640625 0l-3.6875 9.828125q-0.59375 1.609375 -0.921875 2.203125q-0.4375 0.8125 -1.0 1.1875q-0.5625 0.375 -1.34375 0.375q-0.484375 0 -1.0625 -0.203125z" fill-rule="nonzero"/><path fill="#000000" d="m369.39145 453.67328l0 -13.359375l1.8125 0l7.015625 10.484375l0 -10.484375l1.6875 0l0 13.359375l-1.8125 0l-7.015625 -10.5l0 10.5l-1.6875 0zm19.910461 -3.109375l1.6875 0.203125q-0.40625 1.484375 -1.484375 2.3125q-1.078125 0.8125 -2.765625 0.8125q-2.125 0 -3.375 -1.296875q-1.234375 -1.3125 -1.234375 -3.671875q0 -2.453125 1.25 -3.796875q1.265625 -1.34375 3.265625 -1.34375q1.9375 0 3.15625 1.328125q1.234375 1.3125 1.234375 3.703125q0 0.15625 0 0.4375l-7.21875 0q0.09375 1.59375 0.90625 2.453125q0.8125 0.84375 2.015625 0.84375q0.90625 0 1.546875 -0.46875q0.640625 -0.484375 1.015625 -1.515625zm-5.390625 -2.65625l5.40625 0q-0.109375 -1.21875 -0.625 -1.828125q-0.78125 -0.953125 -2.03125 -0.953125q-1.125 0 -1.90625 0.765625q-0.765625 0.75 -0.84375 2.015625zm12.719452 4.296875l0.234375 1.453125q-0.6875 0.140625 -1.234375 0.140625q-0.890625 0 -1.390625 -0.28125q-0.484375 -0.28125 -0.6875 -0.734375q-0.203125 -0.46875 -0.203125 -1.9375l0 -5.578125l-1.203125 0l0 -1.265625l1.203125 0l0 -2.390625l1.625 -0.984375l0 3.375l1.65625 0l0 1.265625l-1.65625 0l0 5.671875q0 0.6875 0.078125 0.890625q0.09375 0.203125 0.28125 0.328125q0.203125 0.109375 0.578125 0.109375q0.265625 0 0.71875 -0.0625z" fill-rule="nonzero"/><path fill="#000000" fill-opacity="0.0" d="m359.357 185.57785c0.8240051 -1.5629883 2.471527 -7.479706 4.9440613 -9.377899c2.4725037 -1.8982086 7.32666 -2.234604 9.890991 -2.011322c2.564331 0.22329712 4.2128296 1.564743 5.494995 3.3510132c1.2821655 1.7862701 1.831665 6.1388245 2.197998 7.3665924" fill-rule="evenodd"/><path stroke="#000000" stroke-width="3.0" stroke-linejoin="round" stroke-linecap="butt" d="m359.357 185.57785c0.8240051 -1.5629883 2.471527 -7.479706 4.9440613 -9.377899c2.4725037 -1.8982086 7.32666 -2.234604 9.890991 -2.011322c2.564331 0.22329712 4.2128296 1.564743 5.494995 3.3510132c1.2821655 1.7862701 1.831665 6.1388245 2.197998 7.3665924" fill-rule="evenodd"/><path fill="#cfe2f3" d="m361.79266 185.16536l0 0c0 -5.375 4.4066467 -9.732285 9.842499 -9.732285l0 0c2.6104126 0 5.1138916 1.0253601 6.959717 2.8505096c1.8458252 1.8251648 2.8828125 4.3006134 2.8828125 6.881775l0 0c0 5.3749847 -4.4066467 9.732285 -9.842529 9.732285l0 0c-5.435852 0 -9.842499 -4.3573 -9.842499 -9.732285z" fill-rule="evenodd"/><path stroke="#000000" stroke-width="1.0" stroke-linejoin="round" stroke-linecap="butt" d="m361.79266 185.16536l0 0c0 -5.375 4.4066467 -9.732285 9.842499 -9.732285l0 0c2.6104126 0 5.1138916 1.0253601 6.959717 2.8505096c1.8458252 1.8251648 2.8828125 4.3006134 2.8828125 6.881775l0 0c0 5.3749847 -4.4066467 9.732285 -9.842529 9.732285l0 0c-5.435852 0 -9.842499 -4.3573 -9.842499 -9.732285z" fill-rule="evenodd"/><path fill="#000000" fill-opacity="0.0" d="m106.514435 324.15485l0 0c0 -5.9403076 5.4994965 -10.75589 12.283463 -10.75589l0 0c6.7839737 0 12.283463 4.8155823 12.283463 10.75589l0 0c0 5.940338 -5.499489 10.75592 -12.283463 10.75592l0 0c-6.783966 0 -12.283463 -4.8155823 -12.283463 -10.75592z" fill-rule="evenodd"/><path stroke="#999999" stroke-width="3.0" stroke-linejoin="round" stroke-linecap="butt" d="m106.514435 324.15485l0 0c0 -5.9403076 5.4994965 -10.75589 12.283463 -10.75589l0 0c6.7839737 0 12.283463 4.8155823 12.283463 10.75589l0 0c0 5.940338 -5.499489 10.75592 -12.283463 10.75592l0 0c-6.783966 0 -12.283463 -4.8155823 -12.283463 -10.75592z" fill-rule="evenodd"/><path fill="#000000" fill-opacity="0.0" d="m115.50525 328.7225c2.5927277 -3.4568787 9.360214 -4.3726196 11.0 0" fill-rule="evenodd"/><path stroke="#000000" stroke-width="2.0" stroke-linejoin="round" stroke-linecap="butt" d="m115.50525 328.7225c2.5927277 -3.4568787 9.360214 -4.3726196 11.0 0" fill-rule="evenodd"/><path fill="#cfe2f3" d="m116.50394 320.10498l0 0c0 -0.8262329 0.45124054 -1.4960632 1.0078735 -1.4960632l0 0c0.26730347 0 0.52365875 0.15762329 0.712677 0.4382019c0.18901062 0.2805481 0.29519653 0.6611023 0.29519653 1.0578613l0 0c0 0.8262634 -0.45124054 1.4960632 -1.0078735 1.4960632l0 0c-0.556633 0 -1.0078735 -0.6697998 -1.0078735 -1.4960632z" fill-rule="evenodd"/><path stroke="#000000" stroke-width="2.0" stroke-linejoin="round" stroke-linecap="butt" d="m116.50394 320.10498l0 0c0 -0.8262329 0.45124054 -1.4960632 1.0078735 -1.4960632l0 0c0.26730347 0 0.52365875 0.15762329 0.712677 0.4382019c0.18901062 0.2805481 0.29519653 0.6611023 0.29519653 1.0578613l0 0c0 0.8262634 -0.45124054 1.4960632 -1.0078735 1.4960632l0 0c-0.556633 0 -1.0078735 -0.6697998 -1.0078735 -1.4960632z" fill-rule="evenodd"/><path fill="#cfe2f3" d="m122.50394 320.60498l0 0c0 -0.8262329 0.45124054 -1.4960632 1.0078735 -1.4960632l0 0c0.26730347 0 0.52365875 0.15762329 0.712677 0.4382019c0.18901062 0.2805481 0.29519653 0.6611023 0.29519653 1.0578613l0 0c0 0.8262634 -0.45124054 1.4960632 -1.0078735 1.4960632l0 0c-0.556633 0 -1.0078735 -0.6697998 -1.0078735 -1.4960632z" fill-rule="evenodd"/><path stroke="#000000" stroke-width="2.0" stroke-linejoin="round" stroke-linecap="butt" d="m122.50394 320.60498l0 0c0 -0.8262329 0.45124054 -1.4960632 1.0078735 -1.4960632l0 0c0.26730347 0 0.52365875 0.15762329 0.712677 0.4382019c0.18901062 0.2805481 0.29519653 0.6611023 0.29519653 1.0578613l0 0c0 0.8262634 -0.45124054 1.4960632 -1.0078735 1.4960632l0 0c-0.556633 0 -1.0078735 -0.6697998 -1.0078735 -1.4960632z" fill-rule="evenodd"/></g></svg>