<svg version="1.1" viewBox="0.0 0.0 1280.0 960.0" fill="none" stroke="none" stroke-linecap="square" stroke-miterlimit="10" xmlns:xlink="http://www.w3.org/1999/xlink" xmlns="http://www.w3.org/2000/svg"><clipPath id="p.0"><path d="m0 0l1280.0 0l0 960.0l-1280.0 0l0 -960.0z" clip-rule="nonzero"/></clipPath><g clip-path="url(#p.0)"><path fill="#000000" fill-opacity="0.0" d="m0 0l1280.0 0l0 960.0l-1280.0 0z" fill-rule="evenodd"/><path fill="#000000" fill-opacity="0.0" d="m417.39108 388.3701l0 0c0 -74.493225 60.38867 -134.8819 134.88187 -134.8819l0 0c35.77289 0 70.08063 14.210724 95.375916 39.50598c25.295288 25.295258 39.50598 59.602997 39.50598 95.375916l0 0c0 74.493195 -60.38867 134.88187 -134.8819 134.88187l0 0c-74.493195 0 -134.88187 -60.38867 -134.88187 -134.88187z" fill-rule="evenodd"/><path stroke="#000000" stroke-width="3.0" stroke-linejoin="round" stroke-linecap="butt" d="m417.39108 388.3701l0 0c0 -74.493225 60.38867 -134.8819 134.88187 -134.8819l0 0c35.77289 0 70.08063 14.210724 95.375916 39.50598c25.295288 25.295258 39.50598 59.602997 39.50598 95.375916l0 0c0 74.493195 -60.38867 134.88187 -134.8819 134.88187l0 0c-74.493195 0 -134.88187 -60.38867 -134.88187 -134.88187z" fill-rule="evenodd"/><path fill="#ffffff" d="m333.91348 424.89307l0 0c0 -94.244995 79.98944 -170.64566 178.6614 -170.64566l0 0c47.383972 0 92.82721 17.978699 126.3327 49.980957c33.505493 32.00226 52.328735 75.40668 52.328735 120.6647l0 0c0 94.244995 -79.98944 170.64569 -178.66144 170.64569l0 0c-98.67197 0 -178.6614 -76.400696 -178.6614 -170.64569z" fill-rule="evenodd"/><path fill="#cfe2f3" d="m411.28235 395.4951l0 0c0 -74.493195 60.388702 -134.88187 134.8819 -134.88187l0 0c35.77289 0 70.08063 14.210724 95.375916 39.50598c25.295227 25.295258 39.50598 59.602997 39.50598 95.375885l0 0c0 74.493225 -60.38867 134.88193 -134.8819 134.88193l0 0c-74.493195 0 -134.8819 -60.388702 -134.8819 -134.88193z" fill-rule="evenodd"/><path stroke="#000000" stroke-width="1.0" stroke-linejoin="round" stroke-linecap="butt" d="m411.28235 395.4951l0 0c0 -74.493195 60.388702 -134.88187 134.8819 -134.88187l0 0c35.77289 0 70.08063 14.210724 95.375916 39.50598c25.295227 25.295258 39.50598 59.602997 39.50598 95.375885l0 0c0 74.493225 -60.38867 134.88193 -134.8819 134.88193l0 0c-74.493195 0 -134.8819 -60.388702 -134.8819 -134.88193z" fill-rule="evenodd"/><path fill="#000000" fill-opacity="0.0" d="m686.13684 370.27298l28.503906 282.29922" fill-rule="evenodd"/><path stroke="#000000" stroke-width="3.0" stroke-linejoin="round" stroke-linecap="butt" d="m686.13684 370.27298l26.695618 264.39023" fill-rule="evenodd"/><path fill="#000000" stroke="#000000" stroke-width="3.0" stroke-linecap="butt" d="m707.90234 635.161l6.2977905 13.047668l3.562439 -14.043213z" fill-rule="evenodd"/><path fill="#000000" fill-opacity="0.0" d="m546.1646 253.48756l-278.42523 1.0078735" fill-rule="evenodd"/><path stroke="#000000" stroke-width="3.0" stroke-linejoin="round" stroke-linecap="butt" d="m546.16455 253.48758l-260.42526 0.94270325" fill-rule="evenodd"/><path fill="#000000" stroke="#000000" stroke-width="3.0" stroke-linecap="butt" d="m285.72134 249.47513l-13.596252 5.0044403l13.632111 4.905899z" fill-rule="evenodd"/><path fill="#000000" fill-opacity="0.0" d="m301.3281 196.48032l116.06299 0l0 42.015747l-116.06299 0z" fill-rule="evenodd"/><path fill="#000000" d="m315.17184 223.40031l0 -11.78125l-4.40625 0l0 -1.578125l10.578125 0l0 1.578125l-4.40625 0l0 11.78125l-1.765625 0zm11.224091 -2.15625l0 -3.671875l-3.640625 0l0 -1.515625l3.640625 0l0 -3.640625l1.546875 0l0 3.640625l3.640625 0l0 1.515625l-3.640625 0l0 3.671875l-1.546875 0zm7.8012085 -11.203125l7.296875 0l0 1.328125l-5.09375 0q0.90625 0.9375 2.84375 2.28125q1.734375 1.203125 2.421875 2.234375q0.6875 1.015625 0.6875 2.78125q0 2.359375 -1.28125 3.65625q-1.265625 1.296875 -3.3125 1.296875q-2.21875 0 -3.359375 -1.453125q-1.125 -1.46875 -1.125 -3.46875q0 -2.328125 1.1875 -3.546875q1.203125 -1.234375 2.859375 -1.296875q-0.84375 -0.59375 -3.125 -2.625l0 -1.1875zm0.75 8.671875q0 1.546875 0.8125 2.5625q0.828125 1.0 2.09375 1.0q1.109375 0 1.953125 -0.859375q0.859375 -0.859375 0.859375 -2.703125q0 -1.71875 -0.8125 -2.65625q-0.8125 -0.9375 -2.046875 -0.9375q-1.359375 0 -2.109375 1.0625q-0.75 1.046875 -0.75 2.53125zm12.900452 4.6875l0 -11.78125l-4.40625 0l0 -1.578125l10.578125 0l0 1.578125l-4.40625 0l0 11.78125l-1.765625 0zm6.552246 0.234375l3.875 -13.8125l1.3125 0l-3.859375 13.8125l-1.328125 0zm14.573914 -1.8125l0 1.578125l-8.828125 0q-0.015625 -0.59375 0.1875 -1.140625q0.34375 -0.90625 1.078125 -1.78125q0.75 -0.875 2.15625 -2.015625q2.171875 -1.78125 2.9375 -2.828125q0.765625 -1.046875 0.765625 -1.96875q0 -0.984375 -0.703125 -1.640625q-0.6875 -0.671875 -1.8125 -0.671875q-1.1875 0 -1.90625 0.71875q-0.703125 0.703125 -0.703125 1.953125l-1.6875 -0.171875q0.171875 -1.890625 1.296875 -2.875q1.140625 -0.984375 3.03125 -0.984375q1.921875 0 3.046875 1.0625q1.125 1.0625 1.125 2.640625q0 0.796875 -0.328125 1.578125q-0.328125 0.78125 -1.09375 1.640625q-0.75 0.84375 -2.53125 2.34375q-1.46875 1.234375 -1.890625 1.6875q-0.421875 0.4375 -0.6875 0.875l6.546875 0z" fill-rule="nonzero"/><path fill="#000000" fill-opacity="0.0" d="m725.55646 553.52234l116.06299 0l0 42.015747l-116.06299 0z" fill-rule="evenodd"/><path fill="#000000" d="m739.4002 580.4423l0 -11.78125l-4.40625 0l0 -1.578125l10.578125 0l0 1.578125l-4.40625 0l0 11.78125l-1.765625 0zm6.116028 -4.015625l0 -1.640625l5.03125 0l0 1.640625l-5.03125 0zm7.1970215 -9.34375l7.296875 0l0 1.328125l-5.09375 0q0.90625 0.9375 2.84375 2.28125q1.734375 1.203125 2.421875 2.234375q0.6875 1.015625 0.6875 2.78125q0 2.359375 -1.28125 3.65625q-1.265625 1.296875 -3.3125 1.296875q-2.21875 0 -3.359375 -1.453125q-1.125 -1.46875 -1.125 -3.46875q0 -2.328125 1.1875 -3.546875q1.203125 -1.234375 2.859375 -1.296875q-0.84375 -0.59375 -3.125 -2.625l0 -1.1875zm0.75 8.671875q0 1.546875 0.8125 2.5625q0.828125 1.0 2.09375 1.0q1.109375 0 1.953125 -0.859375q0.859375 -0.859375 0.859375 -2.703125q0 -1.71875 -0.8125 -2.65625q-0.8125 -0.9375 -2.046875 -0.9375q-1.359375 0 -2.109375 1.0625q-0.75 1.046875 -0.75 2.53125zm12.900452 4.6875l0 -11.78125l-4.40625 0l0 -1.578125l10.578125 0l0 1.578125l-4.40625 0l0 11.78125l-1.765625 0zm6.552246 0.234375l3.875 -13.8125l1.3125 0l-3.859375 13.8125l-1.328125 0zm14.573914 -1.8125l0 1.578125l-8.828125 0q-0.015625 -0.59375 0.1875 -1.140625q0.34375 -0.90625 1.078125 -1.78125q0.75 -0.875 2.15625 -2.015625q2.171875 -1.78125 2.9375 -2.828125q0.765625 -1.046875 0.765625 -1.96875q0 -0.984375 -0.703125 -1.640625q-0.6875 -0.671875 -1.8125 -0.671875q-1.1875 0 -1.90625 0.71875q-0.703125 0.703125 -0.703125 1.953125l-1.6875 -0.171875q0.171875 -1.890625 1.296875 -2.875q1.140625 -0.984375 3.03125 -0.984375q1.921875 0 3.046875 1.0625q1.125 1.0625 1.125 2.640625q0 0.796875 -0.328125 1.578125q-0.328125 0.78125 -1.09375 1.640625q-0.75 0.84375 -2.53125 2.34375q-1.46875 1.234375 -1.890625 1.6875q-0.421875 0.4375 -0.6875 0.875l6.546875 0z" fill-rule="nonzero"/><path fill="#000000" fill-opacity="0.0" d="m590.11285 345.11023l116.06299 0l0 42.015747l-116.06299 0z" fill-rule="evenodd"/><path fill="#000000" d="m600.691 358.67087l7.296875 0l0 1.328125l-5.09375 0q0.90625 0.9375 2.84375 2.28125q1.734375 1.203125 2.421875 2.234375q0.6875 1.015625 0.6875 2.78125q0 2.359375 -1.28125 3.65625q-1.265625 1.296875 -3.3125 1.296875q-2.21875 0 -3.359375 -1.453125q-1.125 -1.46875 -1.125 -3.46875q0 -2.328125 1.1875 -3.546875q1.203125 -1.234375 2.859375 -1.296875q-0.84375 -0.59375 -3.125 -2.625l0 -1.1875zm0.75 8.671875q0 1.546875 0.8125 2.5625q0.828125 1.0 2.09375 1.0q1.109375 0 1.953125 -0.859375q0.859375 -0.859375 0.859375 -2.703125q0 -1.71875 -0.8125 -2.65625q-0.8125 -0.9375 -2.046875 -0.9375q-1.359375 0 -2.109375 1.0625q-0.75 1.046875 -0.75 2.53125zm8.900452 -1.984375q0 -6.90625 4.34375 -6.90625q4.359375 0 4.359375 6.90625q0 6.890625 -4.359375 6.890625q-4.34375 0 -4.34375 -6.890625zm1.6875 -0.671875l5.328125 0q-0.09375 -2.84375 -0.828125 -3.859375q-0.734375 -1.03125 -1.859375 -1.03125q-2.546875 0 -2.640625 4.890625zm5.328125 1.328125l-5.328125 0q0.09375 4.890625 2.65625 4.890625q2.578125 0 2.671875 -4.890625zm2.5163574 6.25l3.875 -13.8125l1.3125 0l-3.859375 13.8125l-1.328125 0zm14.573914 -1.8125l0 1.578125l-8.828125 0q-0.015625 -0.59375 0.1875 -1.140625q0.34375 -0.90625 1.078125 -1.78125q0.75 -0.875 2.15625 -2.015625q2.171875 -1.78125 2.9375 -2.828125q0.765625 -1.046875 0.765625 -1.96875q0 -0.984375 -0.703125 -1.640625q-0.6875 -0.671875 -1.8125 -0.671875q-1.1875 0 -1.90625 0.71875q-0.703125 0.703125 -0.703125 1.953125l-1.6875 -0.171875q0.171875 -1.890625 1.296875 -2.875q1.140625 -0.984375 3.03125 -0.984375q1.921875 0 3.046875 1.0625q1.125 1.0625 1.125 2.640625q0 0.796875 -0.328125 1.578125q-0.328125 0.78125 -1.09375 1.640625q-0.75 0.84375 -2.53125 2.34375q-1.46875 1.234375 -1.890625 1.6875q-0.421875 0.4375 -0.6875 0.875l6.546875 0z" fill-rule="nonzero"/><path fill="#000000" fill-opacity="0.0" d="m552.27295 253.48819l-7.6220093 153.73227" fill-rule="evenodd"/><path stroke="#000000" stroke-width="1.0" stroke-linejoin="round" stroke-linecap="butt" d="m552.27295 253.48819l-7.6220093 153.73227" fill-rule="evenodd"/><path fill="#000000" fill-opacity="0.0" d="m690.2231 376.66928l-144.5669 31.559052" fill-rule="evenodd"/><path stroke="#000000" stroke-width="1.0" stroke-linejoin="round" stroke-linecap="butt" d="m690.2231 376.66928l-144.5669 31.559052" fill-rule="evenodd"/><path fill="#000000" fill-opacity="0.0" d="m679.0236 253.48819l-134.36218 153.73227" fill-rule="evenodd"/><path stroke="#000000" stroke-width="1.0" stroke-linejoin="round" stroke-linecap="butt" d="m679.0236 253.48819l-134.36218 153.73227" fill-rule="evenodd"/><path fill="#000000" fill-opacity="0.0" d="m679.0236 212.48032l116.06299 0l0 42.015747l-116.06299 0z" fill-rule="evenodd"/><path fill="#000000" d="m689.4924 239.40031l0 -13.359375l5.921875 0q1.78125 0 2.703125 0.359375q0.9375 0.359375 1.484375 1.28125q0.5625 0.90625 0.5625 2.015625q0 1.40625 -0.921875 2.390625q-0.921875 0.96875 -2.84375 1.234375q0.703125 0.34375 1.078125 0.671875q0.765625 0.703125 1.453125 1.765625l2.328125 3.640625l-2.21875 0l-1.765625 -2.78125q-0.78125 -1.203125 -1.28125 -1.828125q-0.5 -0.640625 -0.90625 -0.890625q-0.390625 -0.265625 -0.796875 -0.359375q-0.296875 -0.078125 -0.984375 -0.078125l-2.046875 0l0 5.9375l-1.765625 0zm1.765625 -7.453125l3.796875 0q1.21875 0 1.890625 -0.25q0.6875 -0.265625 1.046875 -0.8125q0.359375 -0.546875 0.359375 -1.1875q0 -0.953125 -0.6875 -1.5625q-0.6875 -0.609375 -2.1875 -0.609375l-4.21875 0l0 4.421875z" fill-rule="nonzero"/></g></svg>